<svg width="188" height="94" viewBox="0 0 188 94" fill="none" xmlns="http://www.w3.org/2000/svg">
<path d="M4.4 39.6C6.9 39.8 13.8 41.1 21.45 44.35C27.1 35.6 32.05 26.5 35.9 18.15L35.95 18.1H36.05V18C36.55 17.55 38.1 18.7 37.75 19.25L37.65 19.4H37.6C37.55 20.3 37.5 21.25 37.5 22.15C37.5 29.1 38.95 36.2 41.05 47C45.5 46.5 51.75 45.6 52.55 45.55C52.75 45.35 52.3 46.5 51.75 46.9C50.65 47.65 45.1 48.25 41.35 48.55C42.55 54.1 43.9 59.1 45.4 64.7C45.5 65.05 44.3 66.15 43.8 65.35C39.75 58.3 34 52.2 27.8 48.9L27.65 48.85C25.2 48.8 23 48.7 20.9 48.55C11.95 61.4 7.75 65.95 3.8 64.75C3.4 64.35 3.35 63.85 3.85 63.9C8.05 64.25 13.5 56.1 18.75 48.4C7.6 47.35 2.2 44.95 0.85 42.95C0.45 42.4 0.3 41.85 0.3 41.35C0.3 40.5 0.8 39.8 1.75 39.65C2.5 39.5 3.35 39.5 4.4 39.6ZM27.65 47.4C30.35 47.5 34.5 47.25 39.2 47.15H39.25C37.5 39.45 35.55 28 35.65 22.6C32.1 30.65 28.5 36.3 23.75 44.45L23.25 45.15C24.7 45.85 26.2 46.6 27.65 47.4ZM2.2 42.2C3.15 43.9 11.45 46.25 19.7 46.95L20.8 45.3C13.2 41.9 7.3 41.1 5.1 40.85C4.45 40.75 1.5 40.65 2.2 42.2ZM38.85 48.7C35.5 48.75 32.5 48.95 30.25 48.95C34.25 51.5 38.1 54.65 41.3 58.55L42.5 60C41.45 56.15 40.45 52.45 39.6 48.7H38.85ZM24.7 47.15L22.6 46.1C22.4 46.45 22.15 46.8 21.9 47.1C22.85 47.15 23.8 47.15 24.7 47.15ZM53.2297 53.3C52.8797 53.05 52.5797 52.7 52.5797 52.65C52.4297 52.5 52.4297 52.4 52.4297 52.35C52.2297 52 52.1297 51.35 51.9797 50.55L51.5797 47.35C51.4797 44.8 51.3797 41.6 51.3797 38.35V36.75C51.3797 30.8 51.6297 24.9 52.2797 23.1C52.4297 22.85 52.9297 22.85 53.4297 23.15C53.8297 23.45 54.1297 23.95 53.9797 24.25C53.3797 26 53.1797 32.6 53.1797 39.15C53.1797 42.4 53.2297 45.6 53.4797 48.15C54.3297 46.1 57.5297 41.95 59.7297 42.35C60.1797 42.4 60.7797 42.65 61.1797 43.05L61.4297 43.25C62.4797 44.2 62.8297 45.4 62.8297 46.55C62.8297 47.3 62.6797 48 62.4797 48.6L62.1297 49.4C64.5797 49 68.5797 46.75 70.3297 45.2C70.8297 44.7 70.5297 46.25 70.0797 46.9C68.2297 49.4 64.6797 51.3 60.2797 51.35H59.8797L59.6797 51.4C58.8797 51.55 55.9797 51.4 54.8797 50.65L54.7797 50.6L54.6297 51.1L54.3297 52.5C54.3797 52.85 54.2797 53.1 54.2297 53.25C54.1797 53.25 54.1297 53.35 54.0297 53.4C53.9797 53.4 53.7297 53.55 53.2297 53.3ZM55.1797 49.6C55.6797 49.8 56.1797 49.9 56.6797 49.9C58.9797 49.9 60.9797 47.85 60.9797 45.5C60.9797 44.8 60.8297 44.3 60.5297 44L60.3797 43.8H60.2797C58.5797 44.35 57.2797 46.35 55.0797 49.55L55.1797 49.6ZM84.4426 45.9C83.3426 46.3 80.0926 46.75 77.0426 46.6C77.2426 47.25 77.2926 48 77.1426 48.75C76.6926 51.25 74.6426 52.5 72.3426 52.35C70.4926 52.25 69.2426 50.7 68.9926 49.3C68.6426 47.2 69.9426 44.8 71.0926 44.4C71.1926 44.4 71.2426 44.35 71.3426 44.35C71.5426 43.65 71.8926 43.1 72.8926 43.15C74.2426 43.35 75.3426 44 76.0926 44.9C77.3426 45.05 78.6426 45.1 79.7926 45.1C82.1426 45.1 84.0926 44.9 84.5426 44.9C85.9926 44.85 85.6426 45.5 84.4426 45.9ZM72.0926 45.5C71.4426 46 70.4926 47.75 70.7426 49.15C70.9926 50.6 71.5426 51.15 72.4926 51.1C74.6926 51 75.7926 48.15 74.9926 46.35C73.8426 46.15 72.8926 45.85 72.1926 45.4L72.0926 45.5ZM106.47 31.7C113.77 31.4 117.27 31.25 120.72 31.25C125.57 31.25 130.32 31.5 133.17 32.1C133.62 32.3 134.12 32.8 134.32 33.1C134.37 33.5 134.12 33.7 133.72 33.65C130.32 33 125.52 32.8 120.92 32.8C116.17 32.8 111.42 33.15 106.32 33.2C106.12 36.15 105.82 39.05 105.82 40.4C105.67 44.3 105.47 51.05 105.47 56.75C105.47 59.85 105.52 62.6 105.67 64.4C105.77 65.4 106.17 66 105.82 66.25C105.42 66.55 104.47 65.6 104.22 64.35C103.82 62.85 103.72 58.1 103.72 53.1C103.72 48.65 103.82 44.05 103.87 41.4C102.42 45.75 99.9199 51.1 97.1199 51.15C95.2699 51.2 93.7199 49.85 93.0199 48.25C92.1199 49.6 90.5199 51.45 88.4699 51.45C86.8199 51.45 85.1699 50.1 84.6199 48.45C84.4199 47.85 84.3199 47.2 84.3199 46.55C84.3199 45.75 84.4699 44.95 84.8199 44.2C85.1199 43.7 85.4199 43.25 85.8699 43.1C86.7199 42.9 88.0699 44.4 87.2699 44.55C86.5199 44.75 86.1699 46.4 86.0699 47.1C86.0199 47.9 86.1199 49.3 86.8699 49.8C87.8699 50.45 89.3699 49.2 90.1199 48.55C91.2699 47.35 92.3699 45.55 92.6699 44.1C92.7699 43.55 94.1699 44.15 94.5199 44.8C94.6199 45.2 94.5699 46.05 94.5699 46.95C94.5699 48.4 94.7699 49.9 96.3699 49.55C99.5199 48.9 103.22 39.75 104.32 33.3C99.9199 33.5 96.7699 33.8 92.9199 34.45C91.9699 34.6 90.9199 33.3 91.7699 33.1C95.1699 32.5 98.3199 32.15 104.57 31.8L104.67 30.6C104.72 27.5 105.02 24.6 105.27 23.1C105.37 22.3 107.27 22.8 107.27 23.75C107.02 25.6 106.72 28.65 106.47 31.7Z" fill="black"/>
<path d="M123.95 49.85V28.9H132.5V49.9C132.5 54.05 134.55 56.45 138.6 56.45C142.65 56.45 144.8 54.05 144.8 49.9V28.9H153.35V49.85C153.35 59.55 146.55 64.35 138.45 64.35C130.3 64.35 123.95 59.55 123.95 49.85Z" fill="#FE89B3"/>
<path d="M184.854 53.55C184.854 59.45 180.254 64.35 172.054 64.35C164.504 64.35 158.604 60.6 158.354 53.5H167.454C167.704 56.2 169.404 57.5 171.804 57.5C174.304 57.5 175.904 56.25 175.904 54.2C175.904 47.7 158.354 51.2 158.454 38.75C158.454 32.1 163.904 28.4 171.254 28.4C178.904 28.4 184.054 32.2 184.404 38.9H175.154C175.004 36.65 173.404 35.3 171.104 35.25C169.054 35.2 167.504 36.25 167.504 38.45C167.504 44.55 184.854 41.8 184.854 53.55Z" fill="#FEC646"/>
</svg>
