<svg width="35" height="35" viewBox="0 0 35 35" fill="none" xmlns="http://www.w3.org/2000/svg">
<path d="M7.94096 5.48149H33.5L30.0226 17.6523H9.81342M31.7613 24.607H10.8971L7.41975 2.00412H2.2037M12.6358 31.5617C12.6358 32.522 11.8574 33.3004 10.8971 33.3004C9.93688 33.3004 9.15844 32.522 9.15844 31.5617C9.15844 30.6015 9.93688 29.8231 10.8971 29.8231C11.8574 29.8231 12.6358 30.6015 12.6358 31.5617ZM31.7613 31.5617C31.7613 32.522 30.9829 33.3004 30.0226 33.3004C29.0624 33.3004 28.284 32.522 28.284 31.5617C28.284 30.6015 29.0624 29.8231 30.0226 29.8231C30.9829 29.8231 31.7613 30.6015 31.7613 31.5617Z" stroke="black" stroke-width="3" stroke-linecap="round" stroke-linejoin="round"/>
</svg>
