<svg width="347" height="131" viewBox="0 0 347 131" fill="none" xmlns="http://www.w3.org/2000/svg">
<path d="M9.4 31C9.05 34.6 10.5 37.6 12.85 39.7C14.85 38.9 17.25 38.25 19.55 38.1C23.05 37.9 26.2 38.8 27.05 40.85C28.35 44 23.95 44.85 21.2 44.6C18.15 44.3 15.2 43.3 12.8 41.7L11.8 42.2C7.65 44.55 4.15 49.3 4.15 53.8C4.15 55 4.4 56.2 4.95 57.3C7.15 61.6 13.2 63.45 18.8 63.3C26.8 63.05 35 57.9 36.7 53C36.85 52.65 37.4 53.15 37.4 53.6C37.75 57.55 29.5 65.3 19.35 65.3C12.35 65.3 6.3 62.95 3.35 57.4C2.65 56 2.35 54.55 2.35 53.15C2.35 48.05 6.3 43.25 10.45 40.85L11.15 40.45C8.7 38.2 7.2 35 7.45 30.85C7.8 24.1 14.2 18.9 20.9 18.05C21.45 17.95 22 17.95 22.55 17.95C26.8 17.95 30.15 20.25 30.35 23.15C29.9 25.05 29.75 23.4 29.35 22.8C28.25 20.65 25.9 19.8 23.3 19.8C22.55 19.8 21.8 19.9 21.05 20C15.65 20.95 10 25.1 9.4 31ZM19.6 39.8C17.85 40 16.1 40.45 14.55 41C16.55 42.25 18.9 43 21.3 43.05C21.9 43.1 25.55 43.15 25.65 41.85C25.75 40.25 22.85 39.5 19.6 39.8ZM37.3078 52.6C36.7078 51.15 40.0578 48.55 41.1578 47.8C39.9578 46.9 39.0078 45.85 38.5078 44.8C38.2578 44.25 38.2578 43.9 38.5078 43.65C38.9078 43.5 39.2078 43.65 39.5078 44.1C40.1578 45.05 41.2078 46 42.5578 46.9C44.6578 45.55 46.9078 44.25 48.9578 43.35C49.7078 43.05 50.8078 44.35 49.9078 44.75C48.1078 45.55 46.0578 46.7 44.0578 47.9C45.5078 48.9 47.7078 50.15 48.8578 50.4C49.8078 50.6 49.1578 52.1 48.4578 52C46.9078 51.8 44.7078 50.3 42.5578 48.9C40.9578 50 39.8078 50.9 38.7578 51.75C38.4578 51.95 37.7078 52.95 37.3078 52.6ZM54.0875 69.25C53.8875 67.15 53.7875 64.25 53.6375 61.55C53.6375 50.2 53.7375 41.65 54.1375 38.85C54.1875 38.5 54.6375 38.5 55.0875 38.75C55.5875 39 55.9375 39.45 55.8875 39.8C55.7875 41.05 55.6875 43.4 55.5375 46.8C56.8375 44.8 58.3875 43.75 59.8375 43.35C61.8375 42.8 64.9875 43.85 64.6375 46.65C64.5375 47.8 63.8375 49 63.1375 49.85C66.2875 49.2 70.4375 46.75 72.1875 45.2C72.7875 44.75 72.1875 46.5 71.6875 47.05C69.1375 49.65 65.2875 51.65 61.4875 51.5H61.2375C59.5875 51.95 57.5375 51.45 56.6375 50.9L56.2375 50.65C55.6875 52.95 55.5875 56.3 55.4375 61.5C55.5375 64.5 55.5375 67.35 55.8875 69.85C55.8375 70.7 54.1875 70.2 54.0875 69.25ZM60.0875 50C61.8375 49.5 64.0375 45.75 62.4375 44.8C60.1875 43.5 56.6375 47.95 56.3375 49.35V49.5C56.8875 49.8 59.2875 49.9 60.0875 50ZM75.6203 55.05C74.0203 55.05 72.6203 54.15 71.6203 52.75C70.6703 51.25 70.3203 47.7 70.3203 43.55C70.3203 35.25 71.7203 24.5 72.3703 22.4C72.4203 22.1 72.7203 22.05 73.2203 22.25C73.7203 22.5 74.1203 22.9 74.1203 23.15C73.8203 24.1 72.3703 36.1 72.3703 44.75C72.3703 49.2 72.7703 52.75 73.8703 53.5C76.4703 55.1 82.5203 46.95 83.2703 46C83.7703 45.3 83.8703 46.55 83.6703 47.15C82.7703 49.65 78.7703 55.05 75.6203 55.05ZM97.5773 45.9C96.4773 46.3 93.2273 46.75 90.1773 46.6C90.3773 47.25 90.4273 48 90.2773 48.75C89.8273 51.25 87.7773 52.5 85.4773 52.35C83.6273 52.25 82.3773 50.7 82.1273 49.3C81.7773 47.2 83.0773 44.8 84.2273 44.4C84.3273 44.4 84.3773 44.35 84.4773 44.35C84.6773 43.65 85.0273 43.1 86.0273 43.15C87.3773 43.35 88.4773 44 89.2273 44.9C90.4773 45.05 91.7773 45.1 92.9273 45.1C95.2773 45.1 97.2273 44.9 97.6773 44.9C99.1273 44.85 98.7773 45.5 97.5773 45.9ZM85.2273 45.5C84.5773 46 83.6273 47.75 83.8773 49.15C84.1273 50.6 84.6773 51.15 85.6273 51.1C87.8273 51 88.9273 48.15 88.1273 46.35C86.9773 46.15 86.0273 45.85 85.3273 45.4L85.2273 45.5ZM97.0898 51.5C96.8898 51.05 96.7898 49.75 97.4898 43.45C97.4898 43.1 97.9898 43.1 98.4898 43.35C98.9398 43.6 99.2398 44.1 99.2398 44.4L99.1898 46.35C100.44 44.75 104.14 41.85 106.89 42.3C108.04 42.5 108.74 43.55 108.39 43.95C107.69 44.75 106.99 44.45 107.04 44.05L107.09 43.65C104.59 43.6 100.44 46.65 99.2398 50.1C99.0898 50.5 99.0898 50.8 98.8898 52.25C98.9398 52.9 97.2898 52.25 97.0898 51.5ZM117.706 52.55C114.756 52.7 110.956 52.15 109.956 49.05C109.806 48.6 109.706 48.1 109.706 47.6C109.706 45.4 111.206 43.15 113.656 43.05C115.206 43.05 116.656 44.55 116.106 46C115.456 47.6 113.306 48.8 111.556 48.8C111.706 49.75 113.456 51.35 115.206 51.35C119.906 51.35 123.406 47.85 125.506 45.65C126.656 44.45 126.456 45.6 125.756 47C124.356 49.9 121.156 52.35 117.706 52.55ZM114.456 44.75C113.406 43.7 111.456 46.35 111.506 47.6C113.606 46.65 115.006 45.3 114.456 44.75Z" fill="black"/>
<path d="M28.6 100.55C28.6 106.45 24 111.35 15.8 111.35C8.25 111.35 2.35 107.6 2.1 100.5H11.2C11.45 103.2 13.15 104.5 15.55 104.5C18.05 104.5 19.65 103.25 19.65 101.2C19.65 94.7 2.1 98.2 2.2 85.75C2.2 79.1 7.65 75.4 15 75.4C22.65 75.4 27.8 79.2 28.15 85.9H18.9C18.75 83.65 17.15 82.3 14.85 82.25C12.8 82.2 11.25 83.25 11.25 85.45C11.25 91.55 28.6 88.8 28.6 100.55ZM240.14 93.35C240.14 103.9 232.14 111.35 222.19 111.35C212.24 111.35 204.14 103.9 204.14 93.35C204.14 82.8 212.24 75.4 222.19 75.4C232.19 75.4 240.14 82.8 240.14 93.35ZM212.89 93.35C212.89 99.5 216.49 103.55 222.19 103.55C227.79 103.55 231.44 99.5 231.44 93.35C231.44 87.1 227.79 83.15 222.19 83.15C216.49 83.15 212.89 87.1 212.89 93.35Z" fill="#FE89B3"/>
<path d="M32.4117 93.4C32.4117 82.9 39.7117 75.5 50.0617 75.5C58.4117 75.5 64.7117 80.2 66.7117 87.8H57.3117C55.8617 84.8 53.2117 83.3 49.9617 83.3C44.7117 83.3 41.1117 87.2 41.1117 93.4C41.1117 99.6 44.7117 103.5 49.9617 103.5C53.2117 103.5 55.8617 102 57.3117 99H66.7117C64.7117 106.6 58.4117 111.25 50.0617 111.25C39.7117 111.25 32.4117 103.9 32.4117 93.4ZM279.447 93.35C279.447 103.9 271.447 111.35 261.497 111.35C251.547 111.35 243.447 103.9 243.447 93.35C243.447 82.8 251.547 75.4 261.497 75.4C271.497 75.4 279.447 82.8 279.447 93.35ZM252.197 93.35C252.197 99.5 255.797 103.55 261.497 103.55C267.097 103.55 270.747 99.5 270.747 93.35C270.747 87.1 267.097 83.15 261.497 83.15C255.797 83.15 252.197 87.1 252.197 93.35Z" fill="#FEB4C8"/>
<path d="M90.4977 87.3C90.4977 84.7 88.9977 83 85.7977 83H80.4977V91.7H85.7977C88.9977 91.7 90.4977 90.05 90.4977 87.3ZM71.9477 75.9H86.2977C94.8977 75.9 99.1977 80.85 99.1977 86.95C99.1977 91.35 96.7977 95.5 91.3977 97.1L99.4977 111H89.8477L82.5477 97.75H80.4977V111H71.9477V75.9ZM304.554 111L292.754 95.5V111H284.204V75.9H292.754V91.3L304.454 75.9H314.504L300.904 93.1L315.004 111H304.554Z" fill="#8ED3D1"/>
<path d="M128.515 111L126.415 104.8H113.315L111.215 111H102.265L114.965 75.9H124.865L137.565 111H128.515ZM124.215 98.2L119.865 85.35L115.565 98.2H124.215ZM344.567 100.55C344.567 106.45 339.967 111.35 331.767 111.35C324.217 111.35 318.317 107.6 318.067 100.5H327.167C327.417 103.2 329.117 104.5 331.517 104.5C334.017 104.5 335.617 103.25 335.617 101.2C335.617 94.7 318.067 98.2 318.167 85.75C318.167 79.1 323.617 75.4 330.967 75.4C338.617 75.4 343.767 79.2 344.117 85.9H334.867C334.717 83.65 333.117 82.3 330.817 82.25C328.767 82.2 327.217 83.25 327.217 85.45C327.217 91.55 344.567 88.8 344.567 100.55Z" fill="#FEC646"/>
<path d="M149.98 91.6H154.63C158.03 91.6 159.48 89.9 159.48 87.2C159.48 84.5 158.03 82.8 154.63 82.8H149.98V91.6ZM168.18 87.2C168.18 93 164.23 98.4 155.28 98.4H149.98V111H141.43V75.9H155.28C163.88 75.9 168.18 80.75 168.18 87.2Z" fill="#E5A6D1"/>
<path d="M191.981 100.3C191.981 97.8 190.231 96.35 187.381 96.35H181.181V104.1H187.481C190.331 104.1 191.981 102.8 191.981 100.3ZM191.131 86.45C191.131 84.05 189.581 82.75 186.781 82.75H181.181V90.1H186.781C189.581 90.1 191.131 88.85 191.131 86.45ZM200.631 101.45C200.631 107.25 196.381 111 188.981 111H172.631V75.9H188.431C195.581 75.9 199.831 79.45 199.831 85C199.831 89.25 197.281 92 193.881 93C197.981 93.85 200.631 97.45 200.631 101.45Z" fill="#FFA968"/>
</svg>
