<svg width="681" height="151" viewBox="0 0 681 151" fill="none" xmlns="http://www.w3.org/2000/svg">
<path d="M7.52 54.04C7.44 54.68 6.32 54.68 4.8 54.28C2.24 53.64 0.639998 50.36 0.639998 47.08C0.639998 45.56 1.04 43.96 1.84 42.76C7.04 35.08 20.08 32.28 32.48 31.32C36.88 30.84 41.36 30.52 46.4 30.36C46.8 28.68 47.12 27.4 47.68 26.76C48.16 26.52 48.8 26.6 49.68 27.24C50.4 27.72 50.72 28.52 50.4 28.84C50.16 29.16 50 29.64 49.76 30.28H53.76C58.96 30.28 64.16 30.36 69.44 30.36C76.8 30.36 84.24 30.12 91.6 29.08C96.56 28.36 92.88 31.88 89.36 32.28C83.6 33.08 76 33.24 68.16 33.24C64.4 33.24 60.56 33.16 56.88 33.16C54.48 33.16 52.08 33.16 49.84 33.24H48.96C48.4 35.48 47.92 38.28 47.52 41.56C46.64 48.36 45.84 57 45.28 65.72C44.72 74.36 44.16 85.48 44.08 92.36V95C44.08 97.32 44.16 99.24 44.24 100.84C44.24 103.72 44.48 104.68 44.56 104.84L44.72 105.32C44.96 105.72 44.48 105.88 44 105.88C43.36 105.8 42.32 105.16 41.92 104.52C42 104.44 41.92 104.36 41.92 104.28C41.36 103.4 41.28 101.56 41.2 99.56C41.12 98.2 41.04 96.6 41.04 94.84C41.04 93.64 41.12 92.28 41.12 90.92C41.2 84.04 41.76 72.92 42.32 64.28C42.96 55.56 43.68 46.92 44.56 40.12C44.96 37.64 45.28 35.32 45.52 33.4C40.8 33.64 37.6 33.88 34.32 34.2C21.84 35.24 8.96 37.32 3.84 44.28C3.12 45.64 2.64 46.68 2.64 47.64C2.64 49.4 4 51.08 7.52 54.04ZM62.6731 81.48C61.4731 80.2 60.9131 77.48 60.9131 74.84C60.9131 72.36 61.3931 69.88 62.2731 68.52C62.3531 68.12 63.1531 68.04 64.1131 68.28C64.9931 68.6 65.4731 69.24 65.3931 69.64C64.7531 70.28 63.1531 79.32 64.3531 80.36C64.9931 80.84 65.7931 81.08 66.6731 81.08C71.6331 81.08 80.1131 74.68 82.5131 72.28C82.8331 71.96 83.6331 72.44 82.6731 74.2C81.1531 77 73.8731 83.32 68.3531 83.56C66.3531 83.64 64.1931 83.16 62.6731 81.48ZM64.3531 62.92C63.3931 62.6 62.9131 61.88 63.3131 61.56C63.4731 61.32 64.0331 59.72 64.1931 59.32L64.3531 58.12C64.3531 57.64 65.2331 57.48 66.0331 57.8C67.0731 58.04 67.7131 58.68 67.5531 59.08C67.5531 59.4 67.5531 59.96 67.3131 60.44C67.1531 60.84 66.5131 62.6 66.2731 63C66.0331 63.32 65.0731 63.32 64.3531 62.92ZM81.25 83.48C80.29 83 79.57 81 81.33 81.4C82.05 81.56 82.93 81.64 83.97 81.64C86.53 81.64 89.73 81.24 91.81 80.76C89.81 79.72 86.77 78.2 85.17 77.32C83.09 76.12 80.85 75.32 80.53 72.92C79.89 68.68 88.61 66.12 92.69 65.56C93.97 65.4 95.57 66.92 94.93 67.72C91.97 68.76 84.69 70.12 83.81 72.2C83.33 73.32 85.17 74.12 86.77 75.08C89.81 76.76 92.21 77.96 93.81 79.24C95.57 80.76 94.05 83 91.97 83.56C90.53 83.96 88.45 84.2 86.37 84.2C84.37 84.2 82.45 83.96 81.25 83.48ZM127.212 106.12C126.332 103.32 126.012 90.92 126.012 80.2C126.012 75.56 126.092 71.24 126.172 68.12C126.252 64.36 126.412 59.64 126.652 54.76C120.012 55.32 113.772 55.8 107.372 56.92C105.852 57.16 104.172 55.08 105.532 54.76C111.212 53.72 116.892 53.08 126.732 52.28C127.052 46.04 127.452 39.72 127.772 34.76C127.692 33.48 130.812 33.96 131.052 35.56C130.492 39.56 130.012 45.8 129.692 52.04C130.412 52.04 131.212 51.96 132.012 51.88C138.812 51.4 147.932 50.68 155.772 50.68C160.332 50.68 164.492 50.92 167.372 51.56C168.092 51.88 168.892 52.68 169.212 53.16C169.292 53.8 168.892 54.12 168.252 54.04C164.652 53.32 160.172 53.08 155.372 53.08C146.812 53.08 137.452 53.88 131.372 54.36C130.732 54.44 130.172 54.52 129.532 54.52L128.972 67.96C128.892 73.08 128.652 80.6 128.652 87.88C128.652 96.04 128.972 103.88 130.012 107.64C130.252 109.48 127.772 107.8 127.212 106.12ZM139.154 83.48C139.074 83.32 139.074 82.36 139.074 80.84V69.48C139.074 58.44 139.474 48.6 140.034 38.36C140.034 37.24 143.154 38.2 143.154 39.4C142.114 49.64 141.954 60.04 141.794 71V78.12C144.274 75.32 151.074 68.92 155.634 70.36C156.754 70.68 157.954 71.64 158.274 72.68C158.514 74.6 157.874 76.84 158.434 79.16C159.234 79.56 160.114 79.72 160.994 79.72C165.154 79.72 173.794 76.36 176.354 72.92C177.074 72.04 176.674 74.6 175.474 76.36C173.714 79 167.714 82.04 162.594 82.04C160.834 82.04 159.074 81.64 157.234 80.44C155.394 79.08 154.994 77 154.994 75.32C154.994 74.2 155.154 73.24 155.154 72.68C150.594 72.44 142.194 80.92 141.874 84.6C141.954 85.8 139.474 84.76 139.154 83.48ZM187.958 84.04C181.398 84.2 174.118 81.64 174.918 74.2C175.398 70.2 178.198 67.64 181.558 67.64C182.358 67.64 183.078 67.72 183.878 68.04C184.998 68.6 185.718 69.4 185.798 70.36C186.038 73.24 182.438 76.52 177.958 76.2C178.198 80.36 181.958 82.04 185.798 82.04C196.038 82.04 218.678 72.44 220.838 70.76C221.238 70.44 222.038 70.6 221.878 71.24C220.838 75.48 200.598 83.72 187.958 84.04ZM183.478 70.28C180.118 69.88 178.438 72.12 178.118 74.12C179.878 74.76 183.158 71.96 183.478 70.28ZM246.016 83.48C245.056 83 244.336 81 246.096 81.4C246.816 81.56 247.696 81.64 248.736 81.64C251.296 81.64 254.496 81.24 256.576 80.76C254.576 79.72 251.536 78.2 249.936 77.32C247.856 76.12 245.616 75.32 245.296 72.92C244.656 68.68 253.376 66.12 257.456 65.56C258.736 65.4 260.336 66.92 259.696 67.72C256.736 68.76 249.456 70.12 248.576 72.2C248.096 73.32 249.936 74.12 251.536 75.08C254.576 76.76 256.976 77.96 258.576 79.24C260.336 80.76 258.816 83 256.736 83.56C255.296 83.96 253.216 84.2 251.136 84.2C249.136 84.2 247.216 83.96 246.016 83.48ZM277.829 84.28C273.109 84.52 267.029 83.64 265.429 78.68C265.189 77.96 265.029 77.16 265.029 76.36C265.029 72.84 267.429 69.24 271.349 69.08C273.829 69.08 276.149 71.48 275.269 73.8C274.229 76.36 270.789 78.28 267.989 78.28C268.229 79.8 271.029 82.36 273.829 82.36C281.349 82.36 286.949 76.76 290.309 73.24C292.149 71.32 291.829 73.16 290.709 75.4C288.469 80.04 283.349 83.96 277.829 84.28ZM272.629 71.8C270.949 70.12 267.829 74.36 267.909 76.36C271.269 74.84 273.509 72.68 272.629 71.8ZM290 81.88C288.4 80.68 287.6 79.16 287.6 77.48C287.6 75.72 288.48 73.96 290.48 72.6C292.64 71.16 295.36 70.44 298.16 70.44C300.4 70.44 302.64 70.92 304.64 71.8H304.72L306.08 69.96C306.56 69.08 309.28 70.84 308.72 71.8C308.32 73 307.6 74.44 307.44 75.96C307.36 77.32 307.76 78.92 309.2 79.32C313.28 80.12 320.16 76.04 323.04 72.84C324.4 71.48 325.6 73.48 321.2 77.88C319.2 79.88 313.68 82.44 310.32 81.64C307.68 81 305.68 79.48 304.64 76.6C302.4 78.6 297.12 82.68 292.88 82.68C291.84 82.68 290.88 82.44 290 81.88ZM291.44 80.12C295.28 79.64 300.48 76.36 303.28 73.4C302.48 73.16 301.36 73 300.16 73C296.16 73 290.88 74.52 290 78.2C289.76 79.16 290.24 80.04 291.44 80.12ZM322.031 83.48C321.071 83 320.351 81 322.111 81.4C322.831 81.56 323.711 81.64 324.751 81.64C327.311 81.64 330.511 81.24 332.591 80.76C330.591 79.72 327.551 78.2 325.951 77.32C323.871 76.12 321.631 75.32 321.311 72.92C320.671 68.68 329.391 66.12 333.471 65.56C334.751 65.4 336.351 66.92 335.711 67.72C332.751 68.76 325.471 70.12 324.591 72.2C324.111 73.32 325.951 74.12 327.551 75.08C330.591 76.76 332.991 77.96 334.591 79.24C336.351 80.76 334.831 83 332.751 83.56C331.311 83.96 329.231 84.2 327.151 84.2C325.151 84.2 323.231 83.96 322.031 83.48ZM366.405 73.64C364.645 74.28 359.445 75 354.565 74.76C354.885 75.8 354.965 77 354.725 78.2C354.005 82.2 350.725 84.2 347.045 83.96C344.085 83.8 342.085 81.32 341.685 79.08C341.125 75.72 343.205 71.88 345.045 71.24C345.205 71.24 345.285 71.16 345.445 71.16C345.765 70.04 346.325 69.16 347.925 69.24C350.085 69.56 351.845 70.6 353.045 72.04C355.045 72.28 357.125 72.36 358.965 72.36C362.725 72.36 365.845 72.04 366.565 72.04C368.885 71.96 368.325 73 366.405 73.64ZM346.645 73C345.605 73.8 344.085 76.6 344.485 78.84C344.885 81.16 345.765 82.04 347.285 81.96C350.805 81.8 352.565 77.24 351.285 74.36C349.445 74.04 347.925 73.56 346.805 72.84L346.645 73ZM381.385 72.44C375.465 73.08 369.705 76.92 368.185 80.28L368.105 82.12C368.185 83.16 365.385 82.44 365.305 81.16C365.225 80.52 365.145 79.72 365.305 78.76L366.105 70.76C366.105 70.2 366.905 70.12 367.705 70.44C368.345 70.84 369.065 71.56 368.985 72.04L368.825 74.76C371.545 72.76 377.305 69.88 381.785 70.36C383.305 70.52 384.745 71.96 384.745 73.16C384.745 73.96 384.505 75.16 384.425 76.44C384.425 77.4 385.145 78.12 386.265 78.44C387.945 78.92 390.585 79.08 393.865 79.08C403.305 79.08 417.065 77.48 420.665 76.44C421.225 76.28 424.185 75.56 424.585 76.2C425.225 76.84 421.865 78.12 421.305 78.28C415.625 80.12 403.945 82.04 395.065 82.04C392.265 82.04 389.785 81.8 387.785 81.4C386.425 81 380.745 79.8 381.385 72.44ZM472.264 73.64C470.504 74.28 465.304 75 460.424 74.76C460.744 75.8 460.824 77 460.584 78.2C459.864 82.2 456.584 84.2 452.904 83.96C449.944 83.8 447.944 81.32 447.544 79.08C446.984 75.72 449.064 71.88 450.904 71.24C451.064 71.24 451.144 71.16 451.304 71.16C451.624 70.04 452.184 69.16 453.784 69.24C455.944 69.56 457.704 70.6 458.904 72.04C460.904 72.28 462.984 72.36 464.824 72.36C468.584 72.36 471.704 72.04 472.424 72.04C474.744 71.96 474.184 73 472.264 73.64ZM452.504 73C451.464 73.8 449.944 76.6 450.344 78.84C450.744 81.16 451.624 82.04 453.144 81.96C456.664 81.8 458.424 77.24 457.144 74.36C455.304 74.04 453.784 73.56 452.664 72.84L452.504 73ZM477.324 112.04C477.244 112.04 477.164 111.96 477.084 111.88C472.204 107.72 471.084 97.4 471.084 88.04C471.084 83.48 471.324 79.16 471.564 75.88L470.204 75.24C468.524 74.76 467.884 72.68 469.564 73.08L471.564 73.48L471.484 71.96C471.564 67.16 472.844 51.56 473.484 48.28C473.564 47.8 474.284 47.8 475.004 48.2C475.804 48.6 476.364 49.4 476.204 49.88C475.724 53.08 474.444 68.6 474.284 73.32L474.364 73.8H474.684C475.644 73.88 490.124 73.48 491.564 72.92C493.164 72.44 493.244 74.28 490.044 75.32C487.724 76.04 482.444 76.28 478.924 76.28C477.644 76.28 476.604 76.28 475.964 76.2L475.244 76.12L476.604 77.24C478.444 79 479.724 81.08 481.004 83.24C483.244 87.64 484.444 92.6 484.764 97.24C484.844 98.28 484.844 99.24 484.844 100.2C484.844 103.64 484.444 106.76 483.564 109C483.084 110.44 482.284 111.56 481.404 112.2C480.524 112.84 479.164 113 477.324 112.04ZM480.924 107.4C481.724 105.48 482.124 102.84 482.124 99.8C482.124 98.68 482.044 97.4 481.964 96.2C481.644 91.8 480.604 87.16 478.604 83.24C477.564 81.32 476.284 79.64 475.004 78.28L474.124 77.64C473.804 80.6 473.564 84.76 473.564 89.08C473.564 97.08 474.444 105.8 477.724 109.88L477.964 110.2L477.804 110.12C478.604 110.6 479.964 110.28 480.924 107.4Z" fill="black"/>
<path d="M531.72 42.88H541.98V77.08H555.42V85H531.72V42.88ZM601.774 63.82C601.774 76.48 592.174 85.42 580.234 85.42C568.294 85.42 558.574 76.48 558.574 63.82C558.574 51.16 568.294 42.28 580.234 42.28C592.234 42.28 601.774 51.16 601.774 63.82ZM569.074 63.82C569.074 71.2 573.394 76.06 580.234 76.06C586.954 76.06 591.334 71.2 591.334 63.82C591.334 56.32 586.954 51.58 580.234 51.58C573.394 51.58 569.074 56.32 569.074 63.82Z" fill="#FEB4C8"/>
<path d="M625.662 74.68L636.162 42.88H647.022L632.082 85H619.242L604.302 42.88H615.222L625.662 74.68Z" fill="#ED827F"/>
<path d="M677.11 42.88V51.1H661.57V59.62H675.31V67.54H661.57V76.78H677.11V85H651.31V42.88H677.11Z" fill="#4F64B9"/>
</svg>
