<svg width="764" height="151" viewBox="0 0 764 151" fill="none" xmlns="http://www.w3.org/2000/svg">
<path d="M26.4 102.2C10.96 100.76 1.04 85.4 1.28 69.64C1.6 51.16 15.04 30.12 35.92 30.12C48.32 30.12 52.8 37.72 52.8 46.6C52.8 55.96 47.84 66.76 42.08 71.4C41.6 71.8 38.4 73.64 37.76 73.32C37.28 73.08 37.6 72.52 38 72.2C43.52 67.72 49.68 55.32 49.68 45.48C49.68 38.28 46.4 32.52 37.04 32.2C17.92 31.56 5.2 50.84 4.72 69.4C4.4 81.96 11.2 98.12 26.16 100.2C27.12 100.36 28.16 100.44 29.12 100.44C43.28 100.44 58.8 87.08 61.12 73C61.12 71.8 62.96 73.64 62.32 77C59.76 90.52 46.64 102.36 29.84 102.36C28.72 102.36 27.6 102.28 26.4 102.2ZM69.4975 83.48C69.4175 83.32 69.4175 82.36 69.4175 80.84V69.48C69.4175 58.44 69.8175 48.6 70.3775 38.36C70.3775 37.24 73.4975 38.2 73.4975 39.4C72.4575 49.64 72.2975 60.04 72.1375 71V78.12C74.6175 75.32 81.4175 68.92 85.9775 70.36C87.0975 70.68 88.2975 71.64 88.6175 72.68C88.8575 74.6 88.2175 76.84 88.7775 79.16C89.5775 79.56 90.4575 79.72 91.3375 79.72C95.4975 79.72 104.138 76.36 106.698 72.92C107.418 72.04 107.018 74.6 105.818 76.36C104.058 79 98.0575 82.04 92.9375 82.04C91.1775 82.04 89.4175 81.64 87.5775 80.44C85.7375 79.08 85.3375 77 85.3375 75.32C85.3375 74.2 85.4975 73.24 85.4975 72.68C80.9375 72.44 72.5375 80.92 72.2175 84.6C72.2975 85.8 69.8175 84.76 69.4975 83.48ZM116.142 84.28C111.422 84.52 105.342 83.64 103.742 78.68C103.502 77.96 103.342 77.16 103.342 76.36C103.342 72.84 105.742 69.24 109.662 69.08C112.142 69.08 114.462 71.48 113.582 73.8C112.542 76.36 109.102 78.28 106.302 78.28C106.542 79.8 109.342 82.36 112.142 82.36C119.662 82.36 125.262 76.76 128.622 73.24C130.462 71.32 130.142 73.16 129.022 75.4C126.782 80.04 121.662 83.96 116.142 84.28ZM110.942 71.8C109.262 70.12 106.142 74.36 106.222 76.36C109.582 74.84 111.822 72.68 110.942 71.8ZM130.312 76.04C129.592 79.48 131.673 81.8 135.273 81.8C141.913 81.32 147.673 77.08 152.473 72.84C152.953 72.52 153.513 73.88 152.953 74.92C151.673 77.32 146.393 83.64 136.633 84.2C131.993 84.2 127.432 81.08 127.673 75.88C127.752 73.64 128.712 71.48 130.553 69.96C131.673 69.08 133.113 68.36 134.873 68.36C135.753 68.36 136.793 68.52 137.833 69.08C138.873 69.64 139.593 70.6 139.673 71.4C139.673 72.76 137.993 73.32 137.273 73.56C136.473 73.88 135.753 73.56 136.313 72.52C136.473 72.2 136.793 71.56 136.873 70.68C133.913 70.04 130.953 73 130.312 76.04ZM160.479 77.64L159.999 77.72C160.319 78.84 161.039 79.72 162.319 80.12C163.999 80.6 166.799 80.76 170.079 80.76C179.759 80.76 193.919 79.16 197.519 78.12C198.079 77.96 201.039 77.24 201.439 77.88C202.079 78.52 198.719 79.8 198.159 79.96C192.399 81.8 180.559 83.88 171.599 83.88C168.959 83.88 166.479 83.64 164.559 83.24C162.239 82.68 157.679 81.32 157.119 78.2C155.439 80.52 154.559 84.36 154.479 87.96C154.479 89.16 152.159 88.12 151.679 86.76C151.519 83.96 151.439 81 151.439 78.04C151.439 63.8 153.119 48.44 154.159 38.52C154.239 38.04 154.959 37.88 155.679 38.2C156.559 38.52 157.279 39.24 157.359 39.72C156.159 49.96 155.119 61.4 154.399 76.44C156.959 72.12 160.479 66.92 165.119 66.52C166.879 66.36 167.999 67.64 168.399 68.6C169.599 71.56 164.319 76.52 160.479 77.64ZM165.439 68.76C164.159 69.16 161.119 72.28 158.879 75.72C160.799 75.56 165.999 70.84 165.439 68.76ZM247.608 73.64C245.848 74.28 240.648 75 235.768 74.76C236.088 75.8 236.168 77 235.928 78.2C235.208 82.2 231.928 84.2 228.248 83.96C225.288 83.8 223.288 81.32 222.888 79.08C222.328 75.72 224.408 71.88 226.248 71.24C226.408 71.24 226.488 71.16 226.648 71.16C226.968 70.04 227.528 69.16 229.128 69.24C231.288 69.56 233.048 70.6 234.248 72.04C236.248 72.28 238.328 72.36 240.168 72.36C243.928 72.36 247.048 72.04 247.768 72.04C250.088 71.96 249.528 73 247.608 73.64ZM227.848 73C226.808 73.8 225.288 76.6 225.688 78.84C226.088 81.16 226.968 82.04 228.488 81.96C232.008 81.8 233.768 77.24 232.488 74.36C230.648 74.04 229.128 73.56 228.008 72.84L227.848 73ZM254.852 83.16C252.212 83.16 249.492 81.08 248.612 78.36C248.292 77.4 248.132 76.36 248.132 75.32C248.132 74.04 248.372 72.68 249.012 71.56C249.412 70.76 249.892 70.04 250.612 69.8C251.252 69.64 252.132 70.04 252.772 70.76C253.412 71.4 253.252 71.88 252.852 72.12C251.732 72.84 251.012 75.16 251.012 77.24C251.012 78.68 251.332 79.96 252.212 80.52C255.492 82.76 260.852 74.28 261.492 71.4C261.732 70.28 264.532 71.72 264.372 72.92C264.292 73.48 264.212 74.76 264.212 76.2C264.532 78.12 265.092 80.04 267.332 80.28C272.852 80.04 277.652 75.8 280.292 73.16C281.012 72.2 280.932 74.6 279.972 76.12C278.372 78.6 274.292 82.92 268.772 82.6C265.652 82.6 263.172 80.68 262.052 78.04C260.452 80.36 258.132 83.16 254.852 83.16ZM292.37 85C291.17 85.4 290.05 85.56 289.01 85.56C286.21 85.56 283.81 84.2 282.05 81.4C279.57 77.32 278.77 70.84 278.77 64.28C278.77 61 278.93 57.64 279.25 54.68L268.61 54.92C267.17 54.76 268.37 52.36 269.89 52.36C272.53 52.36 275.81 52.28 279.57 52.2C279.97 48.68 280.53 45.88 280.93 44.36C282.93 36.92 285.73 32.2 290.29 31.96C295.33 31.64 296.85 36.12 296.85 41.24C296.85 44.6 296.21 48.2 295.41 50.92L295.17 51.64C299.97 51.4 305.01 51.08 310.13 50.68C315.41 50.2 320.05 50.04 322.85 49.32C323.41 49.16 323.89 49.16 323.73 49.8C322.29 51.96 315.09 52.52 311.25 52.92C305.09 53.56 299.65 53.88 294.37 54.2C292.21 60.76 289.17 67.88 282.37 74.6C283.33 79.88 285.01 83.32 287.49 83.4C293.25 83.56 301.09 73.8 303.01 70.36C303.25 69.96 304.13 70.2 303.73 72.12C303.01 75.24 297.65 83.32 292.37 85ZM283.73 44.92C283.17 47.32 282.77 49.8 282.45 52.12C285.41 52.04 288.77 51.96 292.21 51.8C292.37 51.08 292.53 50.36 292.77 49.64C293.49 46.84 294.05 43.48 294.05 40.6C294.05 36.84 293.17 33.96 290.69 34.12C286.93 34.36 285.01 39.16 283.73 44.92ZM291.49 54.36L282.05 54.68C281.65 58.04 281.49 61.4 281.49 64.44C281.49 67.16 281.65 69.64 281.89 71.96C287.09 66.2 289.73 60.04 291.49 54.36ZM347.843 73.64C346.083 74.28 340.883 75 336.003 74.76C336.323 75.8 336.403 77 336.163 78.2C335.443 82.2 332.163 84.2 328.483 83.96C325.522 83.8 323.522 81.32 323.122 79.08C322.562 75.72 324.642 71.88 326.482 71.24C326.643 71.24 326.723 71.16 326.883 71.16C327.203 70.04 327.763 69.16 329.363 69.24C331.523 69.56 333.283 70.6 334.483 72.04C336.483 72.28 338.563 72.36 340.403 72.36C344.163 72.36 347.283 72.04 348.003 72.04C350.323 71.96 349.763 73 347.843 73.64ZM328.083 73C327.043 73.8 325.522 76.6 325.922 78.84C326.322 81.16 327.203 82.04 328.723 81.96C332.243 81.8 334.003 77.24 332.723 74.36C330.883 74.04 329.363 73.56 328.243 72.84L328.083 73ZM355.086 83.16C352.446 83.16 349.726 81.08 348.846 78.36C348.526 77.4 348.366 76.36 348.366 75.32C348.366 74.04 348.606 72.68 349.246 71.56C349.646 70.76 350.126 70.04 350.846 69.8C351.486 69.64 352.366 70.04 353.006 70.76C353.646 71.4 353.486 71.88 353.086 72.12C351.966 72.84 351.246 75.16 351.246 77.24C351.246 78.68 351.566 79.96 352.446 80.52C355.726 82.76 361.086 74.28 361.726 71.4C361.966 70.28 364.766 71.72 364.606 72.92C364.526 73.48 364.446 74.76 364.446 76.2C364.766 78.12 365.326 80.04 367.566 80.28C373.086 80.04 377.886 75.8 380.526 73.16C381.246 72.2 381.166 74.6 380.206 76.12C378.606 78.6 374.526 82.92 369.006 82.6C365.886 82.6 363.406 80.68 362.286 78.04C360.686 80.36 358.366 83.16 355.086 83.16ZM379.484 82.6C379.164 81.88 379.004 79.8 380.124 69.72C380.124 69.16 380.924 69.16 381.724 69.56C382.444 69.96 382.924 70.76 382.924 71.24L382.844 74.36C384.844 71.8 390.764 67.16 395.164 67.88C397.004 68.2 398.124 69.88 397.564 70.52C396.444 71.8 395.324 71.32 395.404 70.68L395.484 70.04C391.484 69.96 384.844 74.84 382.924 80.36C382.684 81 382.684 81.48 382.364 83.8C382.444 84.84 379.804 83.8 379.484 82.6Z" fill="black"/>
<path d="M449.98 61.72H455.56C459.64 61.72 461.38 59.68 461.38 56.44C461.38 53.2 459.64 51.16 455.56 51.16H449.98V61.72ZM471.82 56.44C471.82 63.4 467.08 69.88 456.34 69.88H449.98V85H439.72V42.88H456.34C466.66 42.88 471.82 48.7 471.82 56.44ZM692.792 51.1V42.88H725.372V51.1H714.212V85H703.952V51.1H692.792Z" fill="#FE89B3"/>
<path d="M499.421 56.56C499.421 53.44 497.621 51.4 493.781 51.4H487.421V61.84H493.781C497.621 61.84 499.421 59.86 499.421 56.56ZM477.161 42.88H494.381C504.701 42.88 509.861 48.82 509.861 56.14C509.861 61.42 506.981 66.4 500.501 68.32L510.221 85H498.641L489.881 69.1H487.421V85H477.161V42.88ZM761.121 72.46C761.121 79.54 755.601 85.42 745.761 85.42C736.701 85.42 729.621 80.92 729.321 72.4H740.241C740.541 75.64 742.581 77.2 745.461 77.2C748.461 77.2 750.381 75.7 750.381 73.24C750.381 65.44 729.321 69.64 729.441 54.7C729.441 46.72 735.981 42.28 744.801 42.28C753.981 42.28 760.161 46.84 760.581 54.88H749.481C749.301 52.18 747.381 50.56 744.621 50.5C742.161 50.44 740.301 51.7 740.301 54.34C740.301 61.66 761.121 58.36 761.121 72.46Z" fill="#FEB4C8"/>
<path d="M557.762 63.82C557.762 76.48 548.162 85.42 536.222 85.42C524.282 85.42 514.562 76.48 514.562 63.82C514.562 51.16 524.282 42.28 536.222 42.28C548.222 42.28 557.762 51.16 557.762 63.82ZM525.062 63.82C525.062 71.2 529.382 76.06 536.222 76.06C542.942 76.06 547.322 71.2 547.322 63.82C547.322 56.32 542.942 51.58 536.222 51.58C529.382 51.58 525.062 56.32 525.062 63.82Z" fill="#FEC646"/>
<path d="M579.25 42.88C592.69 42.88 601.33 51.4 601.33 63.94C601.33 76.42 592.69 85 579.25 85H563.47V42.88H579.25ZM573.73 76.12H578.59C586.33 76.12 590.89 71.68 590.89 63.94C590.89 56.2 586.33 51.64 578.59 51.64H573.73V76.12Z" fill="#8ED3D1"/>
<path d="M606.884 68.02V42.88H617.144V68.08C617.144 73.06 619.604 75.94 624.464 75.94C629.324 75.94 631.904 73.06 631.904 68.08V42.88H642.164V68.02C642.164 79.66 634.004 85.42 624.284 85.42C614.504 85.42 606.884 79.66 606.884 68.02Z" fill="#E5A6D1"/>
<path d="M647.628 63.88C647.628 51.28 656.388 42.4 668.808 42.4C678.828 42.4 686.388 48.04 688.788 57.16H677.508C675.768 53.56 672.588 51.76 668.688 51.76C662.388 51.76 658.068 56.44 658.068 63.88C658.068 71.32 662.388 76 668.688 76C672.588 76 675.768 74.2 677.508 70.6H688.788C686.388 79.72 678.828 85.3 668.808 85.3C656.388 85.3 647.628 76.48 647.628 63.88Z" fill="#FFA968"/>
</svg>
