<svg width="35" height="36" viewBox="0 0 35 36" fill="none" xmlns="http://www.w3.org/2000/svg">
<path d="M17.3868 18C13.533 18 10.399 14.8808 10.399 11.0452C10.399 7.2097 13.533 4.0905 17.3868 4.0905C21.2406 4.0905 24.3747 7.2097 24.3747 11.0452C24.3747 14.8808 21.2406 18 17.3868 18ZM23.9519 19.1701C26.7243 16.9498 28.3403 13.3593 27.7463 9.42816C27.0563 4.8676 23.2444 1.21818 18.6429 0.686144C12.2927 -0.0493194 6.90507 4.87117 6.90507 11.0452C6.90507 14.3313 8.4354 17.2592 10.8218 19.1701C4.95895 21.3625 0.678892 26.5108 0.00805717 33.4586C-0.0897716 34.4861 0.715585 35.3868 1.75328 35.3868C2.64248 35.3868 3.40067 34.7192 3.47928 33.8376C4.17981 26.0779 10.1492 21.4773 17.3868 21.4773C24.6245 21.4773 30.5939 26.0779 31.2944 33.8376C31.373 34.7192 32.1312 35.3868 33.0204 35.3868C34.0581 35.3868 34.8634 34.4861 34.7656 33.4586C34.0948 26.5108 29.8147 21.3625 23.9519 19.1701Z" fill="black"/>
<path d="M17.3868 18C13.533 18 10.399 14.8808 10.399 11.0452C10.399 7.2097 13.533 4.0905 17.3868 4.0905C21.2406 4.0905 24.3747 7.2097 24.3747 11.0452C24.3747 14.8808 21.2406 18 17.3868 18ZM23.9519 19.1701C26.7243 16.9498 28.3403 13.3593 27.7463 9.42816C27.0563 4.8676 23.2444 1.21818 18.6429 0.686144C12.2927 -0.0493194 6.90507 4.87117 6.90507 11.0452C6.90507 14.3313 8.4354 17.2592 10.8218 19.1701C4.95895 21.3625 0.678892 26.5108 0.00805717 33.4586C-0.0897716 34.4861 0.715585 35.3868 1.75328 35.3868C2.64248 35.3868 3.40067 34.7192 3.47928 33.8376C4.17981 26.0779 10.1492 21.4773 17.3868 21.4773C24.6245 21.4773 30.5939 26.0779 31.2944 33.8376C31.373 34.7192 32.1312 35.3868 33.0204 35.3868C34.0581 35.3868 34.8634 34.4861 34.7656 33.4586C34.0948 26.5108 29.8147 21.3625 23.9519 19.1701Z" stroke="white"/>
</svg>
