<svg width="402" height="55" viewBox="0 0 402 55" fill="none" xmlns="http://www.w3.org/2000/svg">
<path d="M12.85 28.3C16.25 28.8 22.45 29.4 26.05 32.1C27.8 31.55 29.55 31.1 31.3 30.7C35.95 29.65 37.6 29.55 38.05 29.9C38.3 30.15 38.25 30.2 37.9 30.3L31.75 32L27.35 33.3C28.3 34.4 28.85 35.75 28.85 37.45C28.85 43.4 21.05 47.75 13.85 48.95C13.15 49.05 12.4 49.15 11.6 49.15C8.8 49.15 5.9 48.25 5.9 45.25C6 43.7 7.05 42.1 8.75 40.6C12.35 37.35 18.1 34.65 24.2 32.65C21.25 30.8 16.55 30.15 13.05 29.65C8.2 29 2.35 27.6 1.05 23.4C0.7 22.35 0.55 21.3 0.55 20.3C0.55 15 4.75 10.25 9.4 7.1C13.2 4.6 17.85 2.8 22.05 2.8C24.55 2.8 26.9 3.45 28.75 4.95C30 6.2 30.5 7.55 30.5 9.05C30.5 10.95 29.65 13.1 28.5 15.4C27.65 17.05 26.35 17.5 26.85 16.2C28 13.85 28.85 11.35 28.85 9.25C28.85 7.85 28.5 6.65 27.6 5.8C26.45 4.9 24.95 4.5 23.25 4.5C19 4.5 13.7 6.9 10.85 8.85C5.75 12.35 2.25 16.5 2.25 20.95C2.25 21.7 2.35 22.4 2.55 23.15C3.4 26.35 8.45 27.7 12.85 28.3ZM27 37.2C27 35.85 26.5 34.75 25.7 33.85C18.1 36.4 13.2 39.05 10.2 41.7C8.2 43.45 7.35 44.85 7.35 45.9C7.35 47.2 8.75 47.9 10.85 47.9C11.65 47.9 12.55 47.8 13.55 47.6C19.15 46.5 26.7 42.8 27 37.2ZM37.016 35.05C36.966 34.95 36.966 34.35 36.966 33.4V26.3C36.966 19.4 37.216 13.25 37.566 6.85C37.566 6.15 39.516 6.75 39.516 7.5C38.866 13.9 38.766 20.4 38.666 27.25V31.7C40.216 29.95 44.466 25.95 47.316 26.85C48.016 27.05 48.766 27.65 48.966 28.3C49.116 29.5 48.716 30.9 49.066 32.35C49.566 32.6 50.116 32.7 50.666 32.7C53.266 32.7 58.666 30.6 60.266 28.45C60.716 27.9 60.466 29.5 59.716 30.6C58.616 32.25 54.866 34.15 51.666 34.15C50.566 34.15 49.466 33.9 48.316 33.15C47.166 32.3 46.916 31 46.916 29.95C46.916 29.25 47.016 28.65 47.016 28.3C44.166 28.15 38.916 33.45 38.716 35.75C38.766 36.5 37.216 35.85 37.016 35.05ZM59.2734 34.05C58.2734 33.3 57.7734 32.35 57.7734 31.3C57.7734 30.2 58.3234 29.1 59.5734 28.25C60.9234 27.35 62.6234 26.9 64.3734 26.9C65.7734 26.9 67.1734 27.2 68.4234 27.75H68.4734L69.3234 26.6C69.6234 26.05 71.3234 27.15 70.9734 27.75C70.7234 28.5 70.2734 29.4 70.1734 30.35C70.1234 31.2 70.3734 32.2 71.2734 32.45C73.8234 32.95 78.1234 30.4 79.9234 28.4C80.7734 27.55 81.5234 28.8 78.7734 31.55C77.5234 32.8 74.0734 34.4 71.9734 33.9C70.3234 33.5 69.0734 32.55 68.4234 30.75C67.0234 32 63.7234 34.55 61.0734 34.55C60.4234 34.55 59.8234 34.4 59.2734 34.05ZM60.1734 32.95C62.5734 32.65 65.8234 30.6 67.5734 28.75C67.0734 28.6 66.3734 28.5 65.6234 28.5C63.1234 28.5 59.8234 29.45 59.2734 31.75C59.1234 32.35 59.4234 32.9 60.1734 32.95ZM79.293 34.5C79.093 34.05 78.993 32.75 79.693 26.45C79.693 26.1 80.193 26.1 80.693 26.35C81.143 26.6 81.443 27.1 81.443 27.4L81.393 29.35C82.643 27.75 86.343 24.85 89.093 25.3C90.243 25.5 90.943 26.55 90.593 26.95C89.893 27.75 89.193 27.45 89.243 27.05L89.293 26.65C86.793 26.6 82.643 29.65 81.443 33.1C81.293 33.5 81.293 33.8 81.093 35.25C81.143 35.9 79.493 35.25 79.293 34.5ZM101.259 35.4C97.159 35.5 92.609 33.9 93.109 29.25C93.409 26.75 95.159 25.15 97.259 25.15C97.759 25.15 98.209 25.2 98.709 25.4C99.409 25.75 99.859 26.25 99.909 26.85C100.059 28.65 97.809 30.7 95.009 30.5C95.159 33.1 97.509 34.15 99.909 34.15C106.309 34.15 120.459 28.15 121.809 27.1C122.059 26.9 122.559 27 122.459 27.4C121.809 30.05 109.159 35.2 101.259 35.4ZM98.459 26.8C96.359 26.55 95.309 27.95 95.109 29.2C96.209 29.6 98.259 27.85 98.459 26.8ZM147.445 34.2L147.195 30.95C145.745 32.9 143.445 34.9 141.795 34.9C140.145 34.9 138.545 33.65 137.895 32.05C137.645 31.35 137.445 30.5 137.445 29.65C137.445 28.95 137.545 28.25 137.795 27.6C137.995 27.05 138.295 26.55 138.795 26.4C139.095 26.3 139.645 26.5 140.045 26.9C140.445 27.3 140.445 27.75 140.195 27.85C139.995 27.9 139.745 28.2 139.495 28.7C139.395 29.2 139.245 29.85 139.195 30.55C139.295 31.35 139.395 32.8 140.245 33.3C142.345 34.5 146.745 28.65 146.845 27.05C146.845 26.95 146.945 26.9 146.995 26.85C146.895 26.8 146.945 26.8 146.995 26.75C147.045 26.65 147.245 26.6 147.445 26.6C147.945 26.6 148.795 27.2 148.845 27.75C148.895 27.85 149.145 29.9 149.195 32.8V33L149.245 32.95C150.595 32.15 156.945 29.05 158.095 30.1C158.545 30.5 158.495 30.6 158.095 30.7C156.095 31.3 152.795 33.1 150.695 34.35L149.245 35.35L149.195 35.95L149.045 40.6C148.645 46.9 147.295 53.75 142.945 54.65C141.695 54.9 139.695 54.1 138.295 52.7C136.945 51.3 136.145 49.5 136.395 47.7C137.145 43.85 141.145 38.85 146.195 35.1L147.445 34.2ZM141.595 53.15C145.395 52.4 147.445 43.55 147.395 36.55L146.245 37.6C142.195 41.3 138.795 45.35 138.245 48.7C137.945 50.25 138.695 51.5 139.295 52.2C140.045 52.9 140.995 53.3 141.595 53.15ZM171.431 28.9C170.331 29.3 167.081 29.75 164.031 29.6C164.231 30.25 164.281 31 164.131 31.75C163.681 34.25 161.631 35.5 159.331 35.35C157.481 35.25 156.231 33.7 155.981 32.3C155.631 30.2 156.931 27.8 158.081 27.4C158.181 27.4 158.231 27.35 158.331 27.35C158.531 26.65 158.881 26.1 159.881 26.15C161.231 26.35 162.331 27 163.081 27.9C164.331 28.05 165.631 28.1 166.781 28.1C169.131 28.1 171.081 27.9 171.531 27.9C172.981 27.85 172.631 28.5 171.431 28.9ZM159.081 28.5C158.431 29 157.481 30.75 157.731 32.15C157.981 33.6 158.531 34.15 159.481 34.1C161.681 34 162.781 31.15 161.981 29.35C160.831 29.15 159.881 28.85 159.181 28.4L159.081 28.5ZM175.958 34.85C174.308 34.85 172.608 33.55 172.058 31.85C171.858 31.25 171.758 30.6 171.758 29.95C171.758 29.15 171.908 28.3 172.308 27.6C172.558 27.1 172.858 26.65 173.308 26.5C173.708 26.4 174.258 26.65 174.658 27.1C175.058 27.5 174.958 27.8 174.708 27.95C174.008 28.4 173.558 29.85 173.558 31.15C173.558 32.05 173.758 32.85 174.308 33.2C176.358 34.6 179.708 29.3 180.108 27.5C180.258 26.8 182.008 27.7 181.908 28.45C181.858 28.8 181.808 29.6 181.808 30.5C182.008 31.7 182.358 32.9 183.758 33.05C187.208 32.9 190.208 30.25 191.858 28.6C192.308 28 192.258 29.5 191.658 30.45C190.658 32 188.108 34.7 184.658 34.5C182.708 34.5 181.158 33.3 180.458 31.65C179.458 33.1 178.008 34.85 175.958 34.85ZM191.207 34.5C191.007 34.05 190.907 32.75 191.607 26.45C191.607 26.1 192.107 26.1 192.607 26.35C193.057 26.6 193.357 27.1 193.357 27.4L193.307 29.35C194.557 27.75 198.257 24.85 201.007 25.3C202.157 25.5 202.857 26.55 202.507 26.95C201.807 27.75 201.107 27.45 201.157 27.05L201.207 26.65C198.707 26.6 194.557 29.65 193.357 33.1C193.207 33.5 193.207 33.8 193.007 35.25C193.057 35.9 191.407 35.25 191.207 34.5ZM230.666 14C230.316 17.6 231.766 20.6 234.116 22.7C236.116 21.9 238.516 21.25 240.816 21.1C244.316 20.9 247.466 21.8 248.316 23.85C249.616 27 245.216 27.85 242.466 27.6C239.416 27.3 236.466 26.3 234.066 24.7L233.066 25.2C228.916 27.55 225.416 32.3 225.416 36.8C225.416 38 225.666 39.2 226.216 40.3C228.416 44.6 234.466 46.45 240.066 46.3C248.066 46.05 256.266 40.9 257.966 36C258.116 35.65 258.666 36.15 258.666 36.6C259.016 40.55 250.766 48.3 240.616 48.3C233.616 48.3 227.566 45.95 224.616 40.4C223.916 39 223.616 37.55 223.616 36.15C223.616 31.05 227.566 26.25 231.716 23.85L232.416 23.45C229.966 21.2 228.466 18 228.716 13.85C229.066 7.1 235.466 1.9 242.166 1.05C242.716 0.949998 243.266 0.949998 243.816 0.949998C248.066 0.949998 251.416 3.25 251.616 6.15C251.166 8.05 251.016 6.4 250.616 5.8C249.516 3.65 247.166 2.8 244.566 2.8C243.816 2.8 243.066 2.9 242.316 3C236.916 3.95 231.266 8.1 230.666 14ZM240.866 22.8C239.116 23 237.366 23.45 235.816 24C237.816 25.25 240.166 26 242.566 26.05C243.166 26.1 246.816 26.15 246.916 24.85C247.016 23.25 244.116 22.5 240.866 22.8ZM258.573 35.6C257.973 34.15 261.323 31.55 262.423 30.8C261.223 29.9 260.273 28.85 259.773 27.8C259.523 27.25 259.523 26.9 259.773 26.65C260.173 26.5 260.473 26.65 260.773 27.1C261.423 28.05 262.473 29 263.823 29.9C265.923 28.55 268.173 27.25 270.223 26.35C270.973 26.05 272.073 27.35 271.173 27.75C269.373 28.55 267.323 29.7 265.323 30.9C266.773 31.9 268.973 33.15 270.123 33.4C271.073 33.6 270.423 35.1 269.723 35C268.173 34.8 265.973 33.3 263.823 31.9C262.223 33 261.073 33.9 260.023 34.75C259.723 34.95 258.973 35.95 258.573 35.6ZM275.353 52.25C275.153 50.15 275.053 47.25 274.903 44.55C274.903 33.2 275.003 24.65 275.403 21.85C275.453 21.5 275.903 21.5 276.353 21.75C276.853 22 277.203 22.45 277.153 22.8C277.053 24.05 276.953 26.4 276.803 29.8C278.103 27.8 279.653 26.75 281.103 26.35C283.103 25.8 286.253 26.85 285.903 29.65C285.803 30.8 285.103 32 284.403 32.85C287.553 32.2 291.703 29.75 293.453 28.2C294.053 27.75 293.453 29.5 292.953 30.05C290.403 32.65 286.553 34.65 282.753 34.5H282.503C280.853 34.95 278.803 34.45 277.903 33.9L277.503 33.65C276.953 35.95 276.853 39.3 276.703 44.5C276.803 47.5 276.803 50.35 277.153 52.85C277.103 53.7 275.453 53.2 275.353 52.25ZM281.353 33C283.103 32.5 285.303 28.75 283.703 27.8C281.453 26.5 277.903 30.95 277.603 32.35V32.5C278.153 32.8 280.553 32.9 281.353 33ZM299.811 35.55C296.861 35.7 293.061 35.15 292.061 32.05C291.911 31.6 291.811 31.1 291.811 30.6C291.811 28.4 293.311 26.15 295.761 26.05C297.311 26.05 298.761 27.55 298.211 29C297.561 30.6 295.411 31.8 293.661 31.8C293.811 32.75 295.561 34.35 297.311 34.35C302.011 34.35 305.511 30.85 307.611 28.65C308.761 27.45 308.561 28.6 307.861 30C306.461 32.9 303.261 35.35 299.811 35.55ZM296.561 27.75C295.511 26.7 293.561 29.35 293.611 30.6C295.711 29.65 297.111 28.3 296.561 27.75ZM307.418 34.5C307.218 34.05 307.118 32.75 307.818 26.45C307.818 26.1 308.318 26.1 308.818 26.35C309.268 26.6 309.568 27.1 309.568 27.4L309.518 29.35C310.768 27.75 314.468 24.85 317.218 25.3C318.368 25.5 319.068 26.55 318.718 26.95C318.018 27.75 317.318 27.45 317.368 27.05L317.418 26.65C314.918 26.6 310.768 29.65 309.568 33.1C309.418 33.5 309.418 33.8 309.218 35.25C309.268 35.9 307.618 35.25 307.418 34.5ZM321.784 33.8C321.034 33 320.684 31.3 320.684 29.65C320.684 28.1 320.984 26.55 321.534 25.7C321.584 25.45 322.084 25.4 322.684 25.55C323.234 25.75 323.534 26.15 323.484 26.4C323.084 26.8 322.084 32.45 322.834 33.1C323.234 33.4 323.734 33.55 324.284 33.55C327.384 33.55 332.684 29.55 334.184 28.05C334.384 27.85 334.884 28.15 334.284 29.25C333.334 31 328.784 34.95 325.334 35.1C324.084 35.15 322.734 34.85 321.784 33.8ZM322.834 22.2C322.234 22 321.934 21.55 322.184 21.35C322.284 21.2 322.634 20.2 322.734 19.95L322.834 19.2C322.834 18.9 323.384 18.8 323.884 19C324.534 19.15 324.934 19.55 324.834 19.8C324.834 20 324.834 20.35 324.684 20.65C324.584 20.9 324.184 22 324.034 22.25C323.884 22.45 323.284 22.45 322.834 22.2ZM340.973 35.55C338.023 35.7 334.223 35.15 333.223 32.05C333.073 31.6 332.973 31.1 332.973 30.6C332.973 28.4 334.473 26.15 336.923 26.05C338.473 26.05 339.923 27.55 339.373 29C338.723 30.6 336.573 31.8 334.823 31.8C334.973 32.75 336.723 34.35 338.473 34.35C343.173 34.35 346.673 30.85 348.773 28.65C349.923 27.45 349.723 28.6 349.023 30C347.623 32.9 344.423 35.35 340.973 35.55ZM337.723 27.75C336.673 26.7 334.723 29.35 334.773 30.6C336.873 29.65 338.273 28.3 337.723 27.75ZM348.38 33.6C348.33 33.2 348.28 32.7 348.38 32.1L348.88 27.1C348.88 26.75 349.38 26.7 349.88 26.9C350.28 27.15 350.73 27.6 350.68 27.9L350.58 29.6C352.28 28.35 355.88 26.55 358.68 26.85C359.63 26.95 360.53 27.85 360.53 28.6C360.53 29.45 359.98 31.35 360.63 32.3C361.13 32.7 361.68 32.85 362.33 32.85C365.43 32.85 369.78 28.9 371.38 28.1C371.58 28 371.78 29.1 371.03 30.05C369.83 31.6 366.58 34.25 363.08 34.25C361.63 34.25 360.03 33.65 359.13 32.35C358.63 31.6 358.48 30.75 358.48 29.85C358.48 29.3 358.53 28.75 358.63 28.15C354.93 28.55 351.13 30.95 350.18 33.05L350.13 34.2C350.18 34.85 348.43 34.4 348.38 33.6ZM371.754 30.4C371.304 32.55 372.604 34 374.854 34C379.004 33.7 382.604 31.05 385.604 28.4C385.904 28.2 386.254 29.05 385.904 29.7C385.104 31.2 381.804 35.15 375.704 35.5C372.804 35.5 369.954 33.55 370.104 30.3C370.154 28.9 370.754 27.55 371.904 26.6C372.604 26.05 373.504 25.6 374.604 25.6C375.154 25.6 375.804 25.7 376.454 26.05C377.104 26.4 377.554 27 377.604 27.5C377.604 28.35 376.554 28.7 376.104 28.85C375.604 29.05 375.154 28.85 375.504 28.2C375.604 28 375.804 27.6 375.854 27.05C374.004 26.65 372.154 28.5 371.754 30.4ZM392.341 35.55C389.391 35.7 385.591 35.15 384.591 32.05C384.441 31.6 384.341 31.1 384.341 30.6C384.341 28.4 385.841 26.15 388.291 26.05C389.841 26.05 391.291 27.55 390.741 29C390.091 30.6 387.941 31.8 386.191 31.8C386.341 32.75 388.091 34.35 389.841 34.35C394.541 34.35 398.041 30.85 400.141 28.65C401.291 27.45 401.091 28.6 400.391 30C398.991 32.9 395.791 35.35 392.341 35.55ZM389.091 27.75C388.041 26.7 386.091 29.35 386.141 30.6C388.241 29.65 389.641 28.3 389.091 27.75Z" fill="black"/>
</svg>
