<svg width="270" height="128" viewBox="0 0 270 128" fill="none" xmlns="http://www.w3.org/2000/svg">
<path d="M21.7 54.1C19.45 59.25 15.9 64.1 11.5 64C5.45 63.75 2.05 57.05 1.15 50.05C0.95 48.3 0.85 46.5 0.85 44.8C0.85 35.6 3.7 27.45 6.35 26.1C6.8 25.9 6.9 27.05 6.75 27.2C4.65 29.95 2.6 38.1 2.6 45.95C2.6 47.25 2.65 48.5 2.75 49.75C3.25 55.6 5.85 61.6 10.5 62.1C14.45 62.5 19 56.55 20.85 50.85C20.05 47.05 19.7 43.3 19.7 40.2C19.7 36.6 20.15 33.85 20.9 32.95C22.55 31.1 24.5 33.85 24.65 37.6C24.75 40.65 24.1 46.35 22.55 52.1C23.15 56.35 25.85 61.75 30.55 62.15C36.5 62.35 41.4 52.25 43.15 42.35C43.5 40.35 43.7 37.75 43.7 34.95C43.7 28.7 42.6 21.55 39.2 18.05C38.85 17.6 38.6 17 38.85 16.7C38.9 16.3 39.2 16.3 39.65 16.7C43.7 20.85 45.1 28.7 45.1 35.7C45.1 38.35 44.95 40.85 44.6 43C42.9 54.65 37.65 64.85 30.95 64.05C26.25 63.45 23.15 59 21.7 54.1ZM23.1 38C23.2 37.4 22.9 34.6 22.2 34.1C21.7 35.3 21.1 37.5 21.1 41.2C21.1 43.2 21.25 45.65 21.7 48.6C22.6 44.9 23.25 40.6 23.1 38ZM64.1789 45.9C63.0789 46.3 59.8289 46.75 56.7789 46.6C56.9789 47.25 57.0289 48 56.8789 48.75C56.4289 51.25 54.3789 52.5 52.0789 52.35C50.2289 52.25 48.9789 50.7 48.7289 49.3C48.3789 47.2 49.6789 44.8 50.8289 44.4C50.9289 44.4 50.9789 44.35 51.0789 44.35C51.2789 43.65 51.6289 43.1 52.6289 43.15C53.9789 43.35 55.0789 44 55.8289 44.9C57.0789 45.05 58.3789 45.1 59.5289 45.1C61.8789 45.1 63.8289 44.9 64.2789 44.9C65.7289 44.85 65.3789 45.5 64.1789 45.9ZM51.8289 45.5C51.1789 46 50.2289 47.75 50.4789 49.15C50.7289 50.6 51.2789 51.15 52.2289 51.1C54.4289 51 55.5289 48.15 54.7289 46.35C53.5789 46.15 52.6289 45.85 51.9289 45.4L51.8289 45.5ZM63.6914 51.5C63.4914 51.05 63.3914 49.75 64.0914 43.45C64.0914 43.1 64.5914 43.1 65.0914 43.35C65.5414 43.6 65.8414 44.1 65.8414 44.4L65.7914 46.35C67.0414 44.75 70.7414 41.85 73.4914 42.3C74.6414 42.5 75.3414 43.55 74.9914 43.95C74.2914 44.75 73.5914 44.45 73.6414 44.05L73.6914 43.65C71.1914 43.6 67.0414 46.65 65.8414 50.1C65.6914 50.5 65.6914 50.8 65.4914 52.25C65.5414 52.9 63.8914 52.25 63.6914 51.5ZM91.5074 62.8C90.9574 62.65 90.4074 62.25 90.0574 61.85C89.3574 61.05 88.9574 59.9 88.7574 58.8C88.5074 57.6 88.3074 56.05 88.2574 54.35C88.1574 52.95 88.1074 51.4 88.1074 49.8C88.1074 48.5 88.1574 47.1 88.1574 45.75V43.95C87.1074 46.75 85.0574 51.3 81.5574 51.55C80.6074 51.55 79.6574 51.4 78.5074 50.55C77.3074 49.6 76.8074 48.5 76.8074 47.45C76.8074 46.5 77.2074 45.55 77.8574 44.9C78.8574 43.95 80.3074 43.25 82.4574 43.25C83.4574 43.25 84.4574 43.35 85.8074 43.7L86.2074 43.85C87.2574 41.1 87.9074 38.55 88.5074 35.9L88.6074 34.1C88.9574 29.85 89.9074 22.7 89.9574 22.6C90.1074 21.85 91.7574 22.75 91.8574 23.5C91.8074 25.75 91.2574 31.65 91.0074 34C90.9074 35 90.5074 36.4 90.4574 37.25C90.2574 39.75 90.1574 41.7 90.1074 43.6C90.0074 45.95 89.9574 48.3 89.9574 50.55C89.9574 52.2 89.9574 53.75 90.1074 55.2C90.1574 56.85 90.3074 58.35 90.5574 59.5C90.8574 60.55 91.0074 61.15 91.1574 61.4L91.2574 61.5H91.3074C91.6074 61.65 92.0074 62 92.1074 62.3C92.2574 62.7 92.0574 62.9 91.5074 62.8ZM80.5074 50.2C82.9574 49.95 84.5574 47.2 85.6074 45.1L85.6574 45C84.9074 44.9 84.2074 44.85 83.6074 44.85C81.4574 44.85 80.2574 45.4 79.5074 46.2C78.8574 46.9 78.6074 47.65 78.6074 48.3C78.6074 48.95 78.8574 49.5 79.2074 49.75C79.5574 50.05 79.9574 50.2 80.5074 50.2ZM94.9902 52.05C94.3902 51.75 93.9402 50.5 95.0402 50.75C95.4902 50.85 96.0402 50.9 96.6902 50.9C98.2902 50.9 100.29 50.65 101.59 50.35C100.34 49.7 98.4402 48.75 97.4402 48.2C96.1402 47.45 94.7402 46.95 94.5402 45.45C94.1402 42.8 99.5902 41.2 102.14 40.85C102.94 40.75 103.94 41.7 103.54 42.2C101.69 42.85 97.1402 43.7 96.5902 45C96.2902 45.7 97.4402 46.2 98.4402 46.8C100.34 47.85 101.84 48.6 102.84 49.4C103.94 50.35 102.99 51.75 101.69 52.1C100.79 52.35 99.4902 52.5 98.1902 52.5C96.9402 52.5 95.7402 52.35 94.9902 52.05ZM126.716 69.9C126.666 69.9 126.616 69.85 126.566 69.8C123.516 67.2 122.816 60.75 122.816 54.9C122.816 52.05 122.966 49.35 123.116 47.3L122.266 46.9C121.216 46.6 120.816 45.3 121.866 45.55L123.116 45.8L123.066 44.85C123.116 41.85 123.916 32.1 124.316 30.05C124.366 29.75 124.816 29.75 125.266 30C125.766 30.25 126.116 30.75 126.016 31.05C125.716 33.05 124.916 42.75 124.816 45.7L124.866 46H125.066C125.666 46.05 134.716 45.8 135.616 45.45C136.616 45.15 136.666 46.3 134.666 46.95C133.216 47.4 129.916 47.55 127.716 47.55C126.916 47.55 126.266 47.55 125.866 47.5L125.416 47.45L126.266 48.15C127.416 49.25 128.216 50.55 129.016 51.9C130.416 54.65 131.166 57.75 131.366 60.65C131.416 61.3 131.416 61.9 131.416 62.5C131.416 64.65 131.166 66.6 130.616 68C130.316 68.9 129.816 69.6 129.266 70C128.716 70.4 127.866 70.5 126.716 69.9ZM128.966 67C129.466 65.8 129.716 64.15 129.716 62.25C129.716 61.55 129.666 60.75 129.616 60C129.416 57.25 128.766 54.35 127.516 51.9C126.866 50.7 126.066 49.65 125.266 48.8L124.716 48.4C124.516 50.25 124.366 52.85 124.366 55.55C124.366 60.55 124.916 66 126.966 68.55L127.116 68.75L127.016 68.7C127.516 69 128.366 68.8 128.966 67ZM134.199 51.5C133.999 51.05 133.899 49.75 134.599 43.45C134.599 43.1 135.099 43.1 135.599 43.35C136.049 43.6 136.349 44.1 136.349 44.4L136.299 46.35C137.549 44.75 141.249 41.85 143.999 42.3C145.149 42.5 145.849 43.55 145.499 43.95C144.799 44.75 144.099 44.45 144.149 44.05L144.199 43.65C141.699 43.6 137.549 46.65 136.349 50.1C136.199 50.5 136.199 50.8 135.999 52.25C136.049 52.9 134.399 52.25 134.199 51.5ZM162.665 45.9C161.565 46.3 158.315 46.75 155.265 46.6C155.465 47.25 155.515 48 155.365 48.75C154.915 51.25 152.865 52.5 150.565 52.35C148.715 52.25 147.465 50.7 147.215 49.3C146.865 47.2 148.165 44.8 149.315 44.4C149.415 44.4 149.465 44.35 149.565 44.35C149.765 43.65 150.115 43.1 151.115 43.15C152.465 43.35 153.565 44 154.315 44.9C155.565 45.05 156.865 45.1 158.015 45.1C160.365 45.1 162.315 44.9 162.765 44.9C164.215 44.85 163.865 45.5 162.665 45.9ZM150.315 45.5C149.665 46 148.715 47.75 148.965 49.15C149.215 50.6 149.765 51.15 150.715 51.1C152.915 51 154.015 48.15 153.215 46.35C152.065 46.15 151.115 45.85 150.415 45.4L150.315 45.5ZM182.778 50.75C181.028 50.2 179.228 48.55 178.228 46.6C175.978 48.45 174.928 49.35 173.578 50.25C173.178 50.45 172.228 49.95 171.928 49.4C171.428 48.3 171.128 47.15 170.678 45.2C168.128 46.85 166.728 49.5 164.778 51.2C164.378 51.55 163.078 50.55 162.928 49.95C162.878 49.2 162.828 48.45 162.828 47.75C162.828 46.15 162.978 44.7 163.178 43.45C163.328 42.6 164.978 43.7 164.828 44.35C164.878 45.65 164.678 46.55 164.728 48.2C166.478 46.3 168.178 44.3 170.328 43.25C170.728 43.05 171.578 43.55 171.978 44.1C172.528 45.4 172.578 46.45 173.028 48.2L177.878 44.25C178.228 44 179.178 44.5 179.528 45.05C180.178 46.35 180.078 48.35 181.828 48.9C182.878 49.2 184.528 49.3 186.578 49.3C192.478 49.3 201.078 48.3 203.328 47.65C203.678 47.55 205.528 47.1 205.778 47.5C206.178 47.9 204.078 48.7 203.728 48.8C200.178 49.95 192.878 51.15 187.328 51.15C185.578 51.15 184.028 51 182.778 50.75ZM235.029 45.9C233.929 46.3 230.679 46.75 227.629 46.6C227.829 47.25 227.879 48 227.729 48.75C227.279 51.25 225.229 52.5 222.929 52.35C221.079 52.25 219.829 50.7 219.579 49.3C219.229 47.2 220.529 44.8 221.679 44.4C221.779 44.4 221.829 44.35 221.929 44.35C222.129 43.65 222.479 43.1 223.479 43.15C224.829 43.35 225.929 44 226.679 44.9C227.929 45.05 229.229 45.1 230.379 45.1C232.729 45.1 234.679 44.9 235.129 44.9C236.579 44.85 236.229 45.5 235.029 45.9ZM222.679 45.5C222.029 46 221.079 47.75 221.329 49.15C221.579 50.6 222.129 51.15 223.079 51.1C225.279 51 226.379 48.15 225.579 46.35C224.429 46.15 223.479 45.85 222.779 45.4L222.679 45.5ZM239.556 51.85C237.906 51.85 236.206 50.55 235.656 48.85C235.456 48.25 235.356 47.6 235.356 46.95C235.356 46.15 235.506 45.3 235.906 44.6C236.156 44.1 236.456 43.65 236.906 43.5C237.306 43.4 237.856 43.65 238.256 44.1C238.656 44.5 238.556 44.8 238.306 44.95C237.606 45.4 237.156 46.85 237.156 48.15C237.156 49.05 237.356 49.85 237.906 50.2C239.956 51.6 243.306 46.3 243.706 44.5C243.856 43.8 245.606 44.7 245.506 45.45C245.456 45.8 245.406 46.6 245.406 47.5C245.606 48.7 245.956 49.9 247.356 50.05C250.806 49.9 253.806 47.25 255.456 45.6C255.906 45 255.856 46.5 255.256 47.45C254.256 49 251.706 51.7 248.256 51.5C246.306 51.5 244.756 50.3 244.056 48.65C243.056 50.1 241.606 51.85 239.556 51.85ZM254.805 51.5C254.605 51.05 254.505 49.75 255.205 43.45C255.205 43.1 255.705 43.1 256.205 43.35C256.655 43.6 256.955 44.1 256.955 44.4L256.905 46.35C258.155 44.75 261.855 41.85 264.605 42.3C265.755 42.5 266.455 43.55 266.105 43.95C265.405 44.75 264.705 44.45 264.755 44.05L264.805 43.65C262.305 43.6 258.155 46.65 256.955 50.1C256.805 50.5 256.805 50.8 256.605 52.25C256.655 52.9 255.005 52.25 254.805 51.5Z" fill="black"/>
<path d="M1.65 90.4C1.65 79.9 8.95 72.5 19.3 72.5C27.65 72.5 33.95 77.2 35.95 84.8H26.55C25.1 81.8 22.45 80.3 19.2 80.3C13.95 80.3 10.35 84.2 10.35 90.4C10.35 96.6 13.95 100.5 19.2 100.5C22.45 100.5 25.1 99 26.55 96H35.95C33.95 103.6 27.65 108.25 19.3 108.25C8.95 108.25 1.65 100.9 1.65 90.4Z" fill="#FE89B3"/>
<path d="M41.1859 72.9H49.7359V101.4H60.9359V108H41.1859V72.9Z" fill="#8ED3D1"/>
<path d="M65.0141 108V72.9H73.5641V108H65.0141ZM199.45 97.55C199.45 103.45 194.85 108.35 186.65 108.35C179.1 108.35 173.2 104.6 172.95 97.5H182.05C182.3 100.2 184 101.5 186.4 101.5C188.9 101.5 190.5 100.25 190.5 98.2C190.5 91.7 172.95 95.2 173.05 82.75C173.05 76.1 178.5 72.4 185.85 72.4C193.5 72.4 198.65 76.2 199 82.9H189.75C189.6 80.65 188 79.3 185.7 79.25C183.65 79.2 182.1 80.25 182.1 82.45C182.1 88.55 199.45 85.8 199.45 97.55Z" fill="#FEC646"/>
<path d="M101.26 72.9V79.75H88.3102V86.85H99.7602V93.45H88.3102V101.15H101.26V108H79.7602V72.9H101.26Z" fill="#E5A6D1"/>
<path d="M129.661 72.9H138.211V108H129.661L115.361 86.35V108H106.811V72.9H115.361L129.661 94.65V72.9Z" fill="#FFA968"/>
<path d="M142.509 79.75V72.9H169.659V79.75H160.359V108H151.809V79.75H142.509Z" fill="#FEB4C8"/>
</svg>
